[img]http://img859.imageshack.us/img859/240/mpw57685.jpg[/img]



[img]http://leetleech.org/images/48874973695367351744.png[/img]


Format                           : AVI
Format/Info                      : Audio Video Interleave
File size                        : 1.02 GiB
Duration                         : 1h 43mn
Overall bit rate                 : 1 417 Kbps
Writing library                  : VirtualDub build 32839/release

Video
ID                               : 0
Format                           : MPEG-4 Visual
Format profile                   : Advanced Simple@L5
Format settings, BVOP            : Yes
Format settings, QPel            : No
Format settings, GMC             : No warppoints
Format settings, Matrix          : Custom
Codec ID                         : XVID
Codec ID/Hint                    : XviD
Duration                         : 1h 43mn
Bit rate                         : 1 280 Kbps
Width                            : 680 pixels
Height                           : 294 pixels
Display aspect ratio             : 2.35:1
Frame rate                       : 23.976 fps
Color space                      : YUV
Chroma subsampling               : 4:2:0
Bit depth                        : 8 bits
Scan type                        : Progressive
Bits/(Pixel*Frame)               : 0.267
Stream size                      : 947 MiB (90%)
Writing library                  : XviD 1.2.1 (UTC 2008-12-04)

Audio
ID                               : 1
Format                           : MPEG Audio
Format version                   : Version 1
Format profile                   : Layer 3
Codec ID                         : 55
Codec ID/Hint                    : MP3
Duration                         : 1h 43mn
Bit rate mode                    : Constant
Bit rate                         : 128 Kbps
Channel(s)                       : 2 channels
Sampling rate                    : 44.1 KHz
Stream size                      : 94.7 MiB (9%)
Alignment                        : Split accross interleaves
Interleave, duration             : 42 ms (1.00 video frame)
Interleave, preload duration     : 500 ms




[url]http://www.imdb.com/title/tt0993842/[/url]




[IMG]http://leetleech.org/images/89524873606771859129.png[/IMG]


Users: 7.8/10 (3,705 votes) 64 reviews | Critics: 118 reviews Metascore: 65/100 (based on 37 reviews from Metacritic.com)

A 16-year-old who was raised by her father to be the perfect assassin is dispatched on a mission across Europe, tracked by a ruthless intelligence agent and her operatives.
Director:
Joe Wright
Writers:
Seth Lochhead (screenplay), David Farr (screenplay), and 1 more credit »
Stars:
Saoirse Ronan, Cate Blanchett and Eric Bana 



[img]http://leetleech.org/images/95521316153253938506.png[/img]




[img]http://img405.imageshack.us/img405/3747/vlcsnap2011041905h48m55.png[/img]

[img]http://img193.imageshack.us/img193/91/vlcsnap2011041905h51m21.png[/img]

[img]http://img849.imageshack.us/img849/3883/vlcsnap2011041905h50m57.png[/img]



Source 

LKRG  ................ Thanks

Was gonna wait for a TS but went ahead anyway vid has crop issues btw

Deinterlaced ,slight rgb colour change ,slight smoother and slight contrast change

Enjoy



Greetz to Imagine ,Flawl3ss,DiLLoN,BDK,NOiR,TOXiCiNK,THC,Ez,Rx,Boobyblue



[img]http://img411.imageshack.us/img411/6898/sig1n.jpg[/img]




